# xmcd
#
# Track frame offsets:
#   150
#   17325
#   34902
#   48115
#   61255
#   74935
#   91192
#   103432
#   115025
#   134015
#   147355
#   162747
#   178632
#   195625
#   210897
#   228017
#   242475
#   259782
#   275812
#   289612
#   306727
#
# Disc length: 4269 seconds
#
# Revision: 0
# Processed by: cddbd v1.5.1PL2 Copyright (c) Steve Scherf et al.
# Submitted via: GXTranscoder 2.0.1939
#
DISCID=3c10ab15
DTITLE=Collection - Love Balade I
DYEAR=1900
DGENRE=Blues
TTITLE0=Always
TTITLE1=Yesterday Once More
TTITLE2=When Will I See You Again
TTITLE3=Raidrops Keep Falling On My Head
TTITLE4=I'll Never Fall In Love Again
TTITLE5=Feelings
TTITLE6=Young Love
TTITLE7=Help Me Make It Through The Night
TTITLE8=Reunited
TTITLE9=Never My Love
TTITLE10=You Light Up My Life
TTITLE11=You Needed Me
TTITLE12=Season In The Sun
TTITLE13=Cherish
TTITLE14=Make It With You
TTITLE15=I Will Always Love You
TTITLE16=I'd Love You  To Want Me
TTITLE17=If You Don't  Know Me By Now
TTITLE18=We've Only Just Bigun
TTITLE19=A Whiter Shade Of Pale
TTITLE20=Release Me
EXTD=
EXTT0=
EXTT1=
EXTT2=
EXTT3=
EXTT4=
EXTT5=
EXTT6=
EXTT7=
EXTT8=
EXTT9=
EXTT10=
EXTT11=
EXTT12=
EXTT13=
EXTT14=
EXTT15=
EXTT16=
EXTT17=
EXTT18=
EXTT19=
EXTT20=
PLAYORDER=
